
********** The.Crew.2008.DVDRiP.XviD.OPTIONAL-MULTISUB-Zen_Bud ***********

Format                           : AVI
File size                        : 784 MiB
Duration                         : 1h 57mn
Overall bit rate                 : 931 Kbps

Video

Format                           : MPEG-4 Visual
Codec ID/Hint                    : XviD
Duration                         : 1h 57mn
Bit rate                         : 790 Kbps
Width                            : 720 pixels
Height                           : 554 pixels
Display aspect ratio             : 16:9
Stream size                      : 665 MiB (85%)
Writing library                  : XviD 1.1.2 (UTC 2006-11-01)

Audio

Format                           : MPEG Audio
Codec ID/Hint                    : MP3
Duration                         : 1h 57mn
Bit rate                         : 128 Kbps
Channel(s)                       : 2 channels
Sampling rate                    : 48.0 KHz
Stream size                      : 108 MiB (14%)
Language                         : English

Text #1
Language                         : Danish

Text #2
Language                         : Swedish

Text #3
Language                         : Norwegian

Text #4
Language                         : Finnish

Text #5
Language                         : Icelandic


As a major heist approaches and with betrayal all around him, 
a respected crime boss has to summon all his street nous and killer instinct 
as he fights for survival.

